<svg xmlns="http://www.w3.org/2000/svg" fill="currentColor" viewBox="0 0 72 30" class="bc-w-[53px] bc-h-[22px] bc-mt-[-4px] bc-text-dark-label"><path fill-rule="evenodd" d="M30.727 12.477c-1.235 0-2 .86-2 5.14v3.099c0 4.28.765 5.14 2 5.14 1.235 0 2-.86 2-5.14v-3.099c0-4.28-.765-5.14-2-5.14Zm.2 17.433c-3.64 0-6.6-3.221-6.6-7.181v-6.72c0-3.959 2.96-7.18 6.6-7.18 3.64 0 6.6 3.221 6.6 7.18v6.72c0 3.96-2.96 7.18-6.6 7.18ZM40.928 12.57h-2.026V9.258h2.026c0-3.639-.953-6.805 2.988-8.039 1.845-.577 3.824-.11 4.622.345v3.072c-2.304-.676-3.371.278-3.371 2.553v2.069h3.252v3.313h-3.252V30h-4.239V12.57ZM50.61 30h4.306V9.258H50.61V30ZM52.738 5.501c-.78 0-1.395-.237-1.846-.71-.45-.474-.676-1.169-.676-2.083 0-.508.058-.933.175-1.278.117-.344.284-.62.501-.829.217-.209.482-.361.793-.457A3.647 3.647 0 0 1 52.755 0c.834 0 1.469.215 1.903.643.434.43.651 1.117.651 2.065 0 .88-.22 1.566-.659 2.057-.44.491-1.077.736-1.912.736ZM58.55 9.258h4.307s-.287 1.73-.382 2.232c1.121-1.603 2.676-2.509 4.689-2.509 3.187 0 4.29 2.58 4.29 5.833V30h-4.307c0-14.52.35-16.151-.477-17.214-.718-.922-2.52-.98-3.813 1.01V30H58.55V9.258ZM16.885 30h4.307V3.102h-4.307V30ZM10.095 17.335l-2.55 1.642c1.14.716 1.11 2.487 1.11 3.685 0 1.322.314 4.04-2.113 4.31-.974.11-2.094.045-2.947.07v-5.525L0 23.83V30h6.35c2.79-.012 5.08-.578 5.952-3.279.437-1.353.426-2.754.426-4.49 0-2.079-.537-3.967-2.633-4.896ZM3.595 15.488V8.206c.565.038 2.836-.471 3.907.683 1.014 1.094.76 2.859.797 3.644 0 .367-.03.69-.087.974l3.979-2.56c0-2.457-.397-5.764-7.045-5.764H0V18.79l3.595-2.313v-.988Z" clip-rule="evenodd"></path><path fill="#F60" fill-rule="evenodd" d="M0 18.79v5.04l9.481-6.1c1.673-1.076 2.704-3.065 2.704-5.218v-1.561L0 18.789Z" clip-rule="evenodd"></path></svg>